<?xml version="1.0" encoding="UTF-8"?>
<svg enable-background="new 0 0 529.334 735.446" viewBox="0 0 529.334 735.446" xmlns="http://www.w3.org/2000/svg">
 <path d="m0 0h529.33v735.45h-529.33z" fill="#00d100"/>
 <path d="m267.12 596.47c0-1.355-1.1-2.453-2.452-2.453-1.355 0-2.451 1.098-2.451 2.453s1.096 2.451 2.451 2.451c1.353 0 2.452-1.097 2.452-2.451" fill="none" stroke="#fff" stroke-linecap="round" stroke-linejoin="round" stroke-miterlimit="10" stroke-width="3"/>
 <path d="m267.12 367.72c0-1.353-1.1-2.45-2.452-2.45-1.355 0-2.451 1.097-2.451 2.45s1.096 2.452 2.451 2.452c1.353 0 2.452-1.097 2.452-2.452" fill="none" stroke="#fff" stroke-linecap="round" stroke-linejoin="round" stroke-miterlimit="10" stroke-width="3"/>
 <path d="m267.12 138.98c0-1.354-1.1-2.451-2.452-2.451-1.355 0-2.451 1.097-2.451 2.451s1.096 2.451 2.451 2.451c1.353 0 2.452-1.097 2.452-2.451" fill="none" stroke="#fff" stroke-linecap="round" stroke-linejoin="round" stroke-miterlimit="10" stroke-width="3"/>
 <path d="m466.5 64.974v605.5" fill="none" stroke="#fff" stroke-linecap="round" stroke-linejoin="round" stroke-miterlimit="10" stroke-width="3"/>
 <path d="m62.834 64.974v605.5" fill="none" stroke="#fff" stroke-linecap="round" stroke-linejoin="round" stroke-miterlimit="10" stroke-width="3"/>
 <path d="m62.834 64.974h403.67" fill="none" stroke="#fff" stroke-linecap="round" stroke-linejoin="round" stroke-miterlimit="10" stroke-width="3"/>
 <path d="m62.834 670.47h403.67" fill="none" stroke="#fff" stroke-linecap="round" stroke-linejoin="round" stroke-miterlimit="10" stroke-width="3"/>
 <path d="m289.29 48.559v16.415" fill="none" stroke="#fff" stroke-linecap="round" stroke-linejoin="round" stroke-miterlimit="10" stroke-width="3"/>
 <path d="m240.04 48.559v16.415" fill="none" stroke="#fff" stroke-linecap="round" stroke-linejoin="round" stroke-miterlimit="10" stroke-width="3"/>
 <path d="m240.04 48.559h49.246" fill="none" stroke="#fff" stroke-linecap="round" stroke-linejoin="round" stroke-miterlimit="10" stroke-width="3"/>
 <path d="m289.29 686.89v-16.416" fill="none" stroke="#fff" stroke-linecap="round" stroke-linejoin="round" stroke-miterlimit="10" stroke-width="3"/>
 <path d="m240.04 686.89v-16.416" fill="none" stroke="#fff" stroke-linecap="round" stroke-linejoin="round" stroke-miterlimit="10" stroke-width="3"/>
 <path d="m240.04 686.89h49.246" fill="none" stroke="#fff" stroke-linecap="round" stroke-linejoin="round" stroke-miterlimit="10" stroke-width="3"/>
 <path d="m62.834 367.72h403.67" fill="none" stroke="#fff" stroke-linecap="round" stroke-linejoin="round" stroke-miterlimit="10" stroke-width="3"/>
 <path d="m326.29 633.47v37" fill="none" stroke="#fff" stroke-linecap="round" stroke-linejoin="round" stroke-miterlimit="10" stroke-width="3"/>
 <path d="m400.3 559.46v111.01" fill="none" stroke="#fff" stroke-linecap="round" stroke-linejoin="round" stroke-miterlimit="10" stroke-width="3"/>
 <path d="m203.04 633.47h123.25" fill="none" stroke="#fff" stroke-linecap="round" stroke-linejoin="round" stroke-miterlimit="10" stroke-width="3"/>
 <path d="m203.04 633.47v37" fill="none" stroke="#fff" stroke-linecap="round" stroke-linejoin="round" stroke-miterlimit="10" stroke-width="3"/>
 <path d="m129.04 559.46v111.01" fill="none" stroke="#fff" stroke-linecap="round" stroke-linejoin="round" stroke-miterlimit="10" stroke-width="3"/>
 <path d="m129.04 559.46h271.27" fill="none" stroke="#fff" stroke-linecap="round" stroke-linejoin="round" stroke-miterlimit="10" stroke-width="3"/>
 <path d="m326.29 101.98v-37.003" fill="none" stroke="#fff" stroke-linecap="round" stroke-linejoin="round" stroke-miterlimit="10" stroke-width="3"/>
 <path d="m400.3 175.98v-111.01" fill="none" stroke="#fff" stroke-linecap="round" stroke-linejoin="round" stroke-miterlimit="10" stroke-width="3"/>
 <path d="m203.04 101.98h123.25" fill="none" stroke="#fff" stroke-linecap="round" stroke-linejoin="round" stroke-miterlimit="10" stroke-width="3"/>
 <path d="m203.04 101.98v-37.003" fill="none" stroke="#fff" stroke-linecap="round" stroke-linejoin="round" stroke-miterlimit="10" stroke-width="3"/>
 <path d="m129.04 175.98v-111.01" fill="none" stroke="#fff" stroke-linecap="round" stroke-linejoin="round" stroke-miterlimit="10" stroke-width="3"/>
 <path d="m129.04 175.98h271.27" fill="none" stroke="#fff" stroke-linecap="round" stroke-linejoin="round" stroke-miterlimit="10" stroke-width="3"/>
 <path d="m215.47 559.46c11.629-15.461 29.851-24.559 49.197-24.559s37.568 9.098 49.196 24.559" fill="none" stroke="#fff" stroke-linecap="round" stroke-linejoin="round" stroke-miterlimit="10" stroke-width="3"/>
 <path d="m326.23 367.72c0-33.997-27.56-61.558-61.558-61.558s-61.559 27.561-61.559 61.558 27.561 61.56 61.559 61.56 61.558-27.561 61.558-61.56" fill="none" stroke="#fff" stroke-linecap="round" stroke-linejoin="round" stroke-miterlimit="10" stroke-width="3"/>
 <path d="m62.834 663.75c3.715 0 6.728 3.014 6.728 6.727" fill="none" stroke="#fff" stroke-linecap="round" stroke-linejoin="round" stroke-miterlimit="10" stroke-width="3"/>
 <path d="m69.562 64.974c0 3.716-3.012 6.728-6.728 6.728" fill="none" stroke="#fff" stroke-linecap="round" stroke-linejoin="round" stroke-miterlimit="10" stroke-width="3"/>
 <path d="m459.77 670.47c0-3.713 3.012-6.729 6.729-6.729" fill="none" stroke="#fff" stroke-linecap="round" stroke-linejoin="round" stroke-miterlimit="10" stroke-width="3"/>
 <path d="m466.5 71.702c-3.717 0-6.729-3.012-6.729-6.728" fill="none" stroke="#fff" stroke-linecap="round" stroke-linejoin="round" stroke-miterlimit="10" stroke-width="3"/>
 <path d="m313.86 175.98c-11.628 15.462-29.85 24.557-49.196 24.557s-37.568-9.095-49.197-24.557" fill="none" stroke="#fff" stroke-linecap="round" stroke-linejoin="round" stroke-miterlimit="10" stroke-width="3"/>
</svg>
